# This file uses centimeters as units for non-parametric coordinates.

mtllib bigI.mtl
g default
v -19.052817 -3.509500 0.314467
v -18.335693 -3.509500 0.314467
v -19.052817 -1.186117 0.314467
v -18.335693 -1.186117 0.314467
v -19.052817 -1.186117 -0.314467
v -18.335693 -1.186117 -0.314467
v -19.052817 -3.509500 -0.314467
v -18.335693 -3.509500 -0.314467
v -19.052817 -1.186117 0.251573
v -19.052817 -3.509500 0.251573
v -18.335693 -3.509500 0.251573
v -18.335693 -1.186117 0.251573
v -19.052817 -3.509500 -0.257863
v -19.052817 -1.186117 -0.257863
v -18.335693 -1.186117 -0.257863
v -18.335693 -3.509500 -0.257863
v -18.945248 -3.509500 0.314467
v -18.945248 -1.186117 0.314467
v -18.945248 -1.186117 0.251573
v -18.945248 -1.186117 -0.257863
v -18.945248 -1.186117 -0.314467
v -18.945248 -3.509500 -0.314467
v -18.945248 -3.509500 -0.257863
v -18.945248 -3.509500 0.251573
v -18.457604 -1.186117 0.251573
v -18.457604 -1.186117 0.314467
v -18.457604 -3.509500 0.314467
v -18.457604 -3.509500 0.251573
v -18.457604 -3.509500 -0.257863
v -18.457604 -3.509500 -0.314467
v -18.457604 -1.186117 -0.314467
v -18.457604 -1.186117 -0.257863
v -19.052817 -3.393331 0.314467
v -19.052817 -3.393331 0.251573
v -19.052817 -3.393331 -0.257863
v -19.052817 -3.393331 -0.314467
v -18.945248 -3.393331 -0.314467
v -18.457604 -3.393331 -0.314467
v -18.335693 -3.393331 -0.314467
v -18.335693 -3.393331 -0.257863
v -18.335693 -3.393331 0.251573
v -18.335693 -3.393331 0.314467
v -18.457604 -3.393331 0.314467
v -18.945248 -3.393331 0.314467
v -19.052817 -1.296478 -0.314467
v -19.052817 -1.296478 -0.257863
v -19.052817 -1.296478 0.251573
v -19.052817 -1.296478 0.314467
v -18.945248 -1.296478 0.314467
v -18.457604 -1.296478 0.314467
v -18.335693 -1.296478 0.314467
v -18.335693 -1.296478 0.251573
v -18.335693 -1.296478 -0.257863
v -18.335693 -1.296478 -0.314467
v -18.457604 -1.296478 -0.314467
v -18.945248 -1.296478 -0.314467
vt 0.375000 0.000000
vt 0.625000 0.000000
vt 0.375000 0.250000
vt 0.625000 0.250000
vt 0.375000 0.500000
vt 0.625000 0.500000
vt 0.375000 0.750000
vt 0.625000 0.750000
vt 0.375000 1.000000
vt 0.625000 1.000000
vt 0.875000 0.000000
vt 0.875000 0.250000
vt 0.125000 0.000000
vt 0.125000 0.250000
vt 0.350000 0.250000
vt 0.375000 0.275000
vt 0.350000 0.000000
vt 0.375000 0.975000
vt 0.625000 0.975000
vt 0.650000 0.000000
vt 0.625000 0.275000
vt 0.650000 0.250000
vt 0.147500 0.000000
vt 0.375000 0.772500
vt 0.147500 0.250000
vt 0.375000 0.477500
vt 0.625000 0.477500
vt 0.852500 0.250000
vt 0.625000 0.772500
vt 0.852500 0.000000
vt 0.412500 0.000000
vt 0.412500 1.000000
vt 0.412500 0.250000
vt 0.412500 0.275000
vt 0.412500 0.477500
vt 0.412500 0.500000
vt 0.412500 0.750000
vt 0.412500 0.772500
vt 0.412500 0.975000
vt 0.582500 0.275000
vt 0.582500 0.250000
vt 0.582500 0.000000
vt 0.582500 1.000000
vt 0.582500 0.975000
vt 0.582500 0.772500
vt 0.582500 0.750000
vt 0.582500 0.500000
vt 0.582500 0.477500
vt 0.375000 0.012500
vt 0.350000 0.012500
vt 0.147500 0.012500
vt 0.125000 0.012500
vt 0.375000 0.737500
vt 0.412500 0.737500
vt 0.582500 0.737500
vt 0.625000 0.737500
vt 0.875000 0.012500
vt 0.852500 0.012500
vt 0.650000 0.012500
vt 0.625000 0.012500
vt 0.582500 0.012500
vt 0.412500 0.012500
vt 0.125000 0.238125
vt 0.375000 0.511875
vt 0.147500 0.238125
vt 0.350000 0.238125
vt 0.375000 0.238125
vt 0.412500 0.238125
vt 0.582500 0.238125
vt 0.625000 0.238125
vt 0.650000 0.238125
vt 0.852500 0.238125
vt 0.625000 0.511875
vt 0.875000 0.238125
vt 0.582500 0.511875
vt 0.412500 0.511875
vn 0.000000 0.000000 1.000000
vn 0.000000 0.000000 1.000000
vn 0.000000 0.000000 1.000000
vn 0.000000 0.000000 1.000000
vn 0.000000 1.000000 0.000000
vn 0.000000 1.000000 -0.000001
vn 0.000000 1.000000 -0.000000
vn 0.000000 1.000000 0.000000
vn 0.000000 0.000000 -1.000000
vn 0.000000 0.000000 -1.000000
vn 0.000000 0.000000 -1.000000
vn 0.000000 0.000000 -1.000000
vn 0.000000 -1.000000 0.000000
vn 0.000000 -1.000000 0.000000
vn 0.000000 -1.000000 0.000000
vn 0.000000 -1.000000 0.000000
vn 1.000000 0.000000 0.000000
vn 1.000000 0.000000 0.000000
vn 1.000000 -0.000000 0.000000
vn 1.000000 0.000000 0.000000
vn -1.000000 0.000000 0.000000
vn -1.000000 0.000000 0.000000
vn -1.000000 0.000000 0.000000
vn -1.000000 0.000000 0.000000
vn -1.000000 0.000000 0.000000
vn -1.000000 0.000000 0.000000
vn -1.000000 0.000000 0.000000
vn -1.000000 0.000000 0.000000
vn 0.000000 -1.000000 0.000000
vn 0.000000 -1.000000 0.000001
vn 0.000000 -1.000000 0.000000
vn 0.000000 -1.000000 0.000000
vn 1.000000 0.000000 0.000000
vn 1.000000 -0.000000 0.000000
vn 1.000000 0.000000 0.000000
vn 1.000000 0.000000 0.000000
vn 0.000000 1.000000 0.000000
vn 0.000000 1.000000 0.000000
vn 0.000000 1.000000 0.000000
vn 0.000000 1.000000 0.000000
vn 0.000000 0.000000 1.000000
vn 0.000000 0.000000 1.000000
vn 0.000000 0.000000 1.000000
vn 0.000000 0.000000 1.000000
vn 0.000000 1.000000 -0.000000
vn 0.000000 1.000000 -0.000001
vn 0.000000 1.000000 0.000000
vn 0.000000 1.000000 0.000000
vn 0.000000 1.000000 0.000000
vn 0.000000 1.000000 0.000000
vn 0.000000 1.000000 0.000000
vn 0.000000 1.000000 0.000000
vn 0.000000 0.000000 -1.000000
vn 0.000000 0.000000 -1.000000
vn 0.000000 0.000000 -1.000000
vn 0.000000 0.000000 -1.000000
vn 0.000000 -1.000000 0.000000
vn 0.000000 -1.000000 0.000001
vn 0.000000 -1.000000 0.000000
vn 0.000000 -1.000000 0.000000
vn 0.000000 -1.000000 0.000000
vn 0.000000 -1.000000 0.000000
vn 0.000000 -1.000000 0.000000
vn 0.000000 -1.000000 0.000000
vn -1.000000 0.000000 0.000000
vn -1.000000 0.000000 0.000000
vn -1.000000 0.000000 0.000000
vn -1.000000 0.000000 0.000000
vn -1.000000 0.000000 0.000000
vn -1.000000 0.000000 0.000000
vn -1.000000 0.000000 0.000000
vn -1.000000 0.000000 0.000000
vn 0.000000 0.000000 -1.000000
vn 0.000000 0.000000 -1.000000
vn 0.000000 0.000000 -1.000000
vn 0.000000 0.000000 -1.000000
vn 0.000000 0.000000 -1.000000
vn 0.000000 0.000000 -1.000000
vn 0.000000 0.000000 -1.000000
vn 0.000000 0.000000 -1.000000
vn 1.000000 0.000000 0.000000
vn 1.000000 -0.000000 0.000000
vn 1.000000 0.000000 0.000000
vn 1.000000 0.000000 0.000000
vn 1.000000 0.000000 0.000000
vn 1.000000 -0.000000 0.000000
vn 1.000000 0.000000 0.000000
vn 1.000000 0.000000 0.000000
vn 0.000000 0.000000 1.000000
vn 0.000000 0.000000 1.000000
vn 0.000000 0.000000 1.000000
vn 0.000000 0.000000 1.000000
vn 0.000000 0.000000 1.000000
vn 0.000000 0.000000 1.000000
vn 0.000000 0.000000 1.000000
vn 0.000000 0.000000 1.000000
s 1
g pasted__I2
usemtl pasted__lambert3SG8
f 1/1/1 17/31/2 44/62/3 33/49/4
s 2
f 3/3/5 18/33/6 19/34/7 9/16/8
s 3
f 36/53/9 37/54/10 22/37/11 7/7/12
s 4
f 10/18/13 24/39/14 17/32/15 1/9/16
s 5
f 2/2/17 11/20/18 41/59/19 42/60/20
s 6
f 33/49/21 34/50/22 10/17/23 1/1/24
f 7/13/25 13/23/26 35/51/27 36/52/28
s 4
f 7/7/29 22/37/30 23/38/31 13/24/32
s 5
f 39/57/33 40/58/34 16/30/35 8/11/36
s 2
f 14/26/37 20/35/38 21/36/39 5/5/40
s 6
f 34/50/22 35/51/27 13/23/26 10/17/23
s 2
f 9/16/8 19/34/7 20/35/38 14/26/37
s 5
f 40/58/34 41/59/19 11/20/18 16/30/35
s 4
f 13/24/32 23/38/31 24/39/14 10/18/13
s 1
f 42/60/41 43/61/42 27/42/43 2/2/44
s 2
f 25/40/45 26/41/46 4/4/47 12/21/48
f 32/48/49 25/40/45 12/21/48 15/27/50
f 31/47/51 32/48/49 15/27/50 6/6/52
s 3
f 30/46/53 38/55/54 39/56/55 8/8/56
s 4
f 29/45/57 30/46/58 8/8/59 16/29/60
f 28/44/61 29/45/57 16/29/60 11/19/62
f 27/43/63 28/44/61 11/19/62 2/10/64
s 2
f 19/34/7 18/33/6 26/41/46 25/40/45
s 1
f 43/61/42 44/62/3 17/31/2 27/42/43
s 4
f 17/32/15 24/39/14 28/44/61 27/43/63
f 24/39/14 23/38/31 29/45/57 28/44/61
f 23/38/31 22/37/30 30/46/58 29/45/57
s 3
f 22/37/11 37/54/10 38/55/54 30/46/53
s 2
f 21/36/39 20/35/38 32/48/49 31/47/51
f 20/35/38 19/34/7 25/40/45 32/48/49
s 6
f 9/15/65 47/66/66 48/67/67 3/3/68
f 14/25/69 46/65/70 47/66/66 9/15/65
f 45/63/71 46/65/70 14/25/69 5/14/72
s 3
f 5/5/73 21/36/74 56/76/75 45/64/76
f 55/75/77 56/76/75 21/36/74 31/47/78
f 54/73/79 55/75/77 31/47/78 6/6/80
s 5
f 15/28/81 53/72/82 54/74/83 6/12/84
f 12/22/85 52/71/86 53/72/82 15/28/81
f 51/70/87 52/71/86 12/22/85 4/4/88
s 1
f 26/41/89 50/69/90 51/70/91 4/4/92
f 18/33/93 49/68/94 50/69/90 26/41/89
f 48/67/95 49/68/94 18/33/93 3/3/96
s 6
f 36/52/28 35/51/27 46/65/70 45/63/71
f 47/66/66 46/65/70 35/51/27 34/50/22
f 48/67/67 47/66/66 34/50/22 33/49/21
s 1
f 33/49/4 44/62/3 49/68/94 48/67/95
f 50/69/90 49/68/94 44/62/3 43/61/42
f 51/70/91 50/69/90 43/61/42 42/60/41
s 5
f 42/60/20 41/59/19 52/71/86 51/70/87
f 53/72/82 52/71/86 41/59/19 40/58/34
f 54/74/83 53/72/82 40/58/34 39/57/33
s 3
f 39/56/55 38/55/54 55/75/77 54/73/79
f 38/55/54 37/54/10 56/76/75 55/75/77
f 45/64/76 56/76/75 37/54/10 36/53/9
